<?xml version="1.0" encoding="UTF-8" standalone="no"?>
<svg
   width="16"
   version="1.1"
   style="fill:none;stroke:none"
   inkscape:export-ydpi="96"
   viewBox="0 0 16 16"
   inkscape:export-xdpi="96"
   height="16"
   id="svg49"
   sodipodi:docname="gear.svg"
   inkscape:version="1.2.2 (b0a8486541, 2022-12-01)"
   xmlns:inkscape="http://www.inkscape.org/namespaces/inkscape"
   xmlns:sodipodi="http://sodipodi.sourceforge.net/DTD/sodipodi-0.dtd"
   xmlns="http://www.w3.org/2000/svg"
   xmlns:svg="http://www.w3.org/2000/svg"
   xmlns:rdf="http://www.w3.org/1999/02/22-rdf-syntax-ns#"
   xmlns:cc="http://creativecommons.org/ns#"
   xmlns:dc="http://purl.org/dc/elements/1.1/">
  <defs
     id="defs8">
    <clipPath
       id="clip_PreCompLayer_d110e7a55531483683018fff65820969"
       clipPathUnits="userSpaceOnUse">
      <rect
         width="125"
         x="0"
         y="0"
         height="113"
         id="rect2" />
    </clipPath>
    <clipPath
       id="clip_PreCompLayer_599e393108a24aa0af5c470266d8a941"
       clipPathUnits="userSpaceOnUse">
      <rect
         width="125"
         x="0"
         y="0"
         height="113"
         id="rect5" />
    </clipPath>
  </defs>
  <sodipodi:namedview
     pagecolor="#ffffff"
     borderlayer="true"
     bordercolor="#666666"
     inkscape:document-units="px"
     inkscape:pagecheckerboard="true"
     id="namedview10"
     borderopacity="1.0"
     inkscape:showpageshadow="2"
     inkscape:pageopacity="0.0"
     inkscape:deskcolor="#d1d1d1"
     showgrid="false"
     inkscape:zoom="29.80531"
     inkscape:cx="12.195814"
     inkscape:cy="8.9581354"
     inkscape:window-width="1920"
     inkscape:window-height="1023"
     inkscape:window-x="1366"
     inkscape:window-y="29"
     inkscape:window-maximized="1"
     inkscape:current-layer="svg49" />
  <title
     id="title12">Engrenagem</title>
  <path
     id="path24"
     style="display:inline;fill:#ffffff;fill-opacity:1;stroke:none;stroke-width:0.202347"
     d="m 8.8536253,-1.65e-5 -0.861949,2.299716 c -0.209024,0 -0.41605,0.01269 -0.622848,0.03636 l -1.301815,-2.129381 -0.657231,0.39837 c -0.2673,0.161472 -0.551958,0.288556 -0.844955,0.379004 l -0.739039,0.226059 0.692009,2.264938 c -0.131525,0.101173 -0.260923,0.207035 -0.383747,0.318933 l -2.217513,-0.943362 -0.303915,0.706632 c -0.122824,0.28632 -0.280158,0.5551 -0.467531,0.798321 l -0.469902,0.611782 1.829813,1.401408 0.0063,0.0024 c -0.07548,0.245446 -0.131436,0.492948 -0.17231,0.74062 l -2.113968,-0.05375 -0.01976,0.770656 c -0.0172,0.652364 0.04992,1.304661 0.196419,1.942052 l 0.17231,0.7516855 2.062196,-0.473854 c 0.06253,0.165721 0.131567,0.327254 0.209065,0.486501 l -1.542892,1.759071 0.590441,0.516933 c 0.234924,0.206595 0.443876,0.439396 0.6185,0.695565 l 0.435125,0.6351 1.917944,-1.313672 c 0.127074,0.08175 0.256522,0.161504 0.390071,0.234754 l -0.260838,2.364136 0.780536,0.08616 c 0.312423,0.0344 0.616279,0.10774 0.905027,0.215389 l 0.72165,0.271507 0.844955,-2.24399 c 0.215499,-0.01072 0.430964,-0.03239 0.642213,-0.06679 l 1.2800787,2.108041 0.669879,-0.407065 c 0.2673,-0.161472 0.554079,-0.290532 0.849302,-0.38098 l 0.739039,-0.224083 -0.724021,-2.381129 c 0.0949,-0.07972 0.187778,-0.161549 0.278227,-0.249772 l 2.342398,1.003434 0.310238,-0.721255 c 0.122825,-0.288546 0.281933,-0.557617 0.469508,-0.803063 L 15.572559,11.021548 13.55107,9.4671945 c 0.04532,-0.170173 0.07977,-0.342411 0.107891,-0.512585 l 2.114364,0.05612 0.02134,-0.770656 c 0.0172,-0.652364 -0.04755,-1.304662 -0.194047,-1.942052 l -0.172311,-0.751686 -2.064567,0.471878 c -0.04533,-0.118372 -0.09047,-0.234845 -0.142275,-0.348968 l 1.721922,-1.97446 -0.579375,-0.505867 c -0.234925,-0.204572 -0.4419,-0.437072 -0.616525,-0.691218 l -0.437495,-0.6351 -2.085909,1.431839 c -0.08397,-0.05605 -0.168065,-0.112018 -0.25649,-0.163616 l 0.273484,-2.562529 -0.764728,-0.08378 c -0.3104,-0.034401 -0.6145527,-0.10537 -0.9010747,-0.213018 z m -0.834284,4.650809 c 0.439569,0.002 0.885639,0.08996 1.314462,0.273484 1.7152907,0.734113 2.5109877,2.725499 1.7760657,4.439373 -0.734922,1.7138725 -2.7284307,2.5085965 -4.4437207,1.7744835 -1.71529,-0.734112 -2.510592,-2.7258935 -1.77567,-4.4397675 0.551192,-1.285405 1.810156,-2.05351 3.128863,-2.047573 z"
     inkscape:label="gear" />
  <metadata
     id="metadata174">
    <rdf:RDF>
      <cc:Work
         rdf:about="">
        <dc:title>Engrenagem</dc:title>
      </cc:Work>
    </rdf:RDF>
  </metadata>
</svg>
